<mxfile host="app.diagrams.net" modified="2021-08-13T02:00:03.198Z" agent="5.0 (Macintosh; Intel Mac OS X 10_15_7) AppleWebKit/605.1.15 (KHTML, like Gecko) Version/14.1.2 Safari/605.1.15" etag="B9n1RZvcrdgqRaMZ36GV" version="14.9.6" type="github">
  <diagram id="P5T6wKQARkzDIhyEkJeF" name="Page-1">
    <mxGraphModel dx="1186" dy="712" grid="1" gridSize="10" guides="1" tooltips="1" connect="1" arrows="1" fold="1" page="1" pageScale="1" pageWidth="850" pageHeight="1100" math="0" shadow="0">
      <root>
        <mxCell id="0" />
        <mxCell id="1" parent="0" />
        <mxCell id="2zqB1Xz968hX3zYv1ob9-10" style="edgeStyle=orthogonalEdgeStyle;rounded=0;orthogonalLoop=1;jettySize=auto;html=1;exitX=1;exitY=0.5;exitDx=0;exitDy=0;entryX=0.5;entryY=0;entryDx=0;entryDy=0;fontSize=14;" edge="1" parent="1" source="2zqB1Xz968hX3zYv1ob9-2" target="2zqB1Xz968hX3zYv1ob9-7">
          <mxGeometry relative="1" as="geometry" />
        </mxCell>
        <mxCell id="2zqB1Xz968hX3zYv1ob9-2" value="Upload the DLL to Digital Silo&#39;s storage account" style="rounded=0;whiteSpace=wrap;html=1;fontSize=14;fillColor=#f8cecc;strokeColor=#b85450;" vertex="1" parent="1">
          <mxGeometry x="330" y="200" width="180" height="90" as="geometry" />
        </mxCell>
        <mxCell id="2zqB1Xz968hX3zYv1ob9-6" style="edgeStyle=orthogonalEdgeStyle;rounded=0;orthogonalLoop=1;jettySize=auto;html=1;exitX=0.5;exitY=0;exitDx=0;exitDy=0;entryX=0;entryY=0.5;entryDx=0;entryDy=0;fontSize=14;" edge="1" parent="1" source="2zqB1Xz968hX3zYv1ob9-5" target="2zqB1Xz968hX3zYv1ob9-2">
          <mxGeometry relative="1" as="geometry" />
        </mxCell>
        <mxCell id="2zqB1Xz968hX3zYv1ob9-5" value="Prepare the grain&#39;s DLL" style="rounded=0;whiteSpace=wrap;html=1;fontSize=14;fillColor=#ffe6cc;strokeColor=#d79b00;" vertex="1" parent="1">
          <mxGeometry x="100" y="410" width="180" height="90" as="geometry" />
        </mxCell>
        <mxCell id="2zqB1Xz968hX3zYv1ob9-11" style="edgeStyle=orthogonalEdgeStyle;rounded=0;orthogonalLoop=1;jettySize=auto;html=1;exitX=0.5;exitY=1;exitDx=0;exitDy=0;entryX=0.5;entryY=0;entryDx=0;entryDy=0;fontSize=14;" edge="1" parent="1" source="2zqB1Xz968hX3zYv1ob9-7" target="2zqB1Xz968hX3zYv1ob9-8">
          <mxGeometry relative="1" as="geometry" />
        </mxCell>
        <mxCell id="2zqB1Xz968hX3zYv1ob9-7" value="Restart Gateway" style="rounded=0;whiteSpace=wrap;html=1;fontSize=14;fillColor=#dae8fc;strokeColor=#6c8ebf;" vertex="1" parent="1">
          <mxGeometry x="600" y="291" width="180" height="90" as="geometry" />
        </mxCell>
        <mxCell id="2zqB1Xz968hX3zYv1ob9-12" style="edgeStyle=orthogonalEdgeStyle;rounded=0;orthogonalLoop=1;jettySize=auto;html=1;exitX=0.5;exitY=1;exitDx=0;exitDy=0;entryX=1;entryY=0.5;entryDx=0;entryDy=0;fontSize=14;" edge="1" parent="1" source="2zqB1Xz968hX3zYv1ob9-8" target="2zqB1Xz968hX3zYv1ob9-9">
          <mxGeometry relative="1" as="geometry" />
        </mxCell>
        <mxCell id="2zqB1Xz968hX3zYv1ob9-8" value="Restart the Serverless&lt;br&gt;component" style="rounded=0;whiteSpace=wrap;html=1;fontSize=14;fillColor=#d5e8d4;strokeColor=#82b366;" vertex="1" parent="1">
          <mxGeometry x="600" y="456" width="180" height="90" as="geometry" />
        </mxCell>
        <mxCell id="2zqB1Xz968hX3zYv1ob9-9" value="Start submitting the grain&#39;s payloads" style="rounded=0;whiteSpace=wrap;html=1;fontSize=14;fillColor=#fff2cc;strokeColor=#d6b656;" vertex="1" parent="1">
          <mxGeometry x="330" y="580" width="180" height="90" as="geometry" />
        </mxCell>
      </root>
    </mxGraphModel>
  </diagram>
</mxfile>
